<svg xmlns="http://www.w3.org/2000/svg" viewBox="0 0 64 64">
  <rect width="64" height="64" rx="16" fill="#f8fafd"/>
  <path d="M13 32c0-10 7-17 17-17s17 7 17 17-7 17-17 17-17-7-17-17Z" fill="#4285f4"/>
  <path d="M22 32c0-5 3-8 8-8s8 3 8 8-3 8-8 8-8-3-8-8Z" fill="#ffffff"/>
  <path d="M42 17h8v27c0 8-5 13-13 13-3 0-6-1-9-2l2-7c2 1 4 2 6 2 4 0 6-2 6-6V17Z" fill="#34a853"/>
  <circle cx="16" cy="17" r="4" fill="#ea4335"/>
  <circle cx="48" cy="14" r="4" fill="#fbbc05"/>
  <path d="M50 47c2 2 4 3 7 3 2 0 4-1 4-3 0-1-1-2-4-3l-3-1c-5-2-7-5-7-9 0-6 5-10 12-10 4 0 8 1 11 4l-4 6c-2-2-4-3-7-3-2 0-3 1-3 2 0 2 1 2 4 3l3 1c5 2 7 5 7 9 0 6-5 10-12 10-5 0-9-2-12-5l4-4Z" fill="#202124" transform="scale(.62) translate(34 19)"/>
</svg>
