<svg xmlns="http://www.w3.org/2000/svg" viewBox="0 0 64 64">
  <rect width="64" height="64" rx="16" fill="#F7FAFC"/>
  <circle cx="25" cy="31" r="16" fill="#173B6D"/>
  <circle cx="25" cy="31" r="8" fill="#F7FAFC"/>
  <path d="M41 14h8v30c0 8-5 13-13 13-4 0-7-1-10-3l3-7c2 1 4 2 6 2 4 0 6-2 6-6V14Z" fill="#5F6673"/>
  <circle cx="49" cy="12" r="4" fill="#14B8A6"/>
  <path d="M47 47c2 2 5 3 8 3 2 0 4-1 4-3 0-1-1-2-4-3l-3-1c-5-2-7-5-7-9 0-6 5-10 12-10 4 0 8 1 11 4l-4 6c-2-2-4-3-7-3-2 0-3 1-3 2 0 2 1 2 4 3l3 1c5 2 7 5 7 9 0 6-5 10-12 10-5 0-10-2-13-5l4-4Z" fill="#173B6D" transform="scale(.58) translate(38 22)"/>
</svg>
