<svg xmlns="http://www.w3.org/2000/svg" viewBox="0 0 64 64">
  <rect width="64" height="64" rx="18" fill="#F6F4E8"/>
  <circle cx="24" cy="32" r="16" fill="#C0E1D2"/>
  <circle cx="24" cy="32" r="8" fill="#F6F4E8"/>
  <path d="M39 14h8v28c0 8-5 13-13 13-4 0-8-1-11-4l4-7c2 2 4 3 7 3 3 0 5-2 5-6V14Z" fill="#26332D"/>
  <circle cx="49" cy="13" r="4" fill="#DC9B9B"/>
  <path d="M45 49c2 2 5 3 8 3 2 0 4-1 4-3 0-1-1-2-4-3l-3-1c-5-2-7-5-7-9 0-6 5-10 12-10 4 0 8 1 11 4l-4 6c-2-2-4-3-7-3-2 0-3 1-3 2 0 2 1 2 4 3l3 1c5 2 7 5 7 9 0 6-5 10-12 10-5 0-10-2-13-5l4-4Z" fill="#68756E" transform="scale(.58) translate(38 22)"/>
</svg>
